<svg width="24" height="24" viewBox="0 0 24 24" fill="currentColor" xmlns="http://www.w3.org/2000/svg" aria-hidden="true">
    <path d="M12.0009 20.9457C9.41061 20.9457 6.79472 20.9457 4.20448 20.9457C3.84544 20.9457 3.48639 20.8944 3.15299 20.7918C2.22974 20.5097 1.79376 19.7403 2.02457 18.8171C2.10151 18.5093 2.22974 18.2015 2.40926 17.9194C4.99951 13.4058 7.61539 8.89206 10.2313 4.37837C10.4365 4.01932 10.7186 3.71157 11.0263 3.42947C11.6418 2.91655 12.3855 2.94219 13.001 3.42947C13.3601 3.71157 13.6166 4.07062 13.8217 4.4553C15.5913 7.53282 17.3609 10.6103 19.1561 13.6879C19.9768 15.0984 20.7718 16.4833 21.5925 17.8938C21.8746 18.4067 22.0797 18.9196 22.0284 19.5095C21.9515 20.0481 21.6694 20.4327 21.1821 20.6892C20.7461 20.8687 20.3102 20.9457 19.8485 20.9457C17.643 20.9457 15.4374 20.9457 13.2319 20.9457C12.8215 20.9457 12.4112 20.9457 12.0009 20.9457ZM12.6933 14.6368C12.6933 14.5598 12.7189 14.5085 12.7189 14.4572C12.9241 13.098 13.1293 11.7131 13.3344 10.3539C13.3857 9.94354 13.4627 9.50756 13.4627 9.09723C13.437 8.40479 12.9241 7.86622 12.2573 7.76364C11.5905 7.63541 10.9237 7.99445 10.6416 8.60995C10.4877 8.94335 10.4621 9.30239 10.539 9.66144C10.7698 11.0207 10.975 12.3799 11.2058 13.7391C11.2571 14.0469 11.2828 14.3547 11.3084 14.6624C11.7957 14.6368 12.2317 14.6368 12.6933 14.6368ZM10.4877 17.0475C10.4877 17.8682 11.1545 18.5349 11.9752 18.5349C12.8215 18.5349 13.4883 17.8938 13.4883 17.0475C13.4883 16.2268 12.8215 15.5344 12.0009 15.5344C11.1802 15.5344 10.4877 16.2012 10.4877 17.0475Z" />
</svg>